<?xml version="1.0" encoding="utf-8"?>
<!-- Generator: Adobe Illustrator 27.9.6, SVG Export Plug-In . SVG Version: 9.03 Build 54986)  -->
<svg version="1.1" id="Layer_1" xmlns="http://www.w3.org/2000/svg" xmlns:xlink="http://www.w3.org/1999/xlink" x="0px" y="0px"
	 viewBox="0 0 1920 2400" style="enable-background:new 0 0 1920 2400;" xml:space="preserve">
<g id="QzhQPH.tif">
	<g>
		<path d="M1870.8,749.51c-1.2,2.82-2.98,5.23-4.86,7.65c-16.97,21.7-35.58,41.91-54.78,61.64c-12.93,13.29-25.21,27.21-36.57,41.91
			c-10.08,13.05-23.68,18.81-39.89,19.67c-18.83,1-37.68,1.47-56.52,2.4c-18.68,0.92-37.41,0.7-56.11-0.3
			c-1.28-0.07-2.56-0.2-3.83-0.18c-19.36,0.27-38.68-0.99-58.02-1.26c-13.42-0.19-26.87-0.41-40.27-1.09
			c-13.11-0.66-26.22-0.33-39.32-0.87c-31.97-1.3-63.97-0.21-95.94-1c-19.99-0.5-39.98-0.24-59.95-0.98
			c-35.02-1.29-70.04-0.68-105.06-0.44c-11.01,0.07-22.08,0.22-33.07,0.92c-17.85,1.14-35.75,2.39-52.82,8.49
			c-8.31,2.97-16.59,6.2-23.08,12.4c-12.07,11.52-19.43,25.5-18.94,42.46c0.46,15.87,7.22,28.5,21.36,36.83
			c13.17,7.76,27.27,12.41,42.4,14.23c19.24,2.32,38.55,2.87,57.9,2.87c75.81-0.03,151.63,0.19,227.44-0.2
			c25.26-0.13,50.53-0.64,75.79-0.35c16.31,0.18,32.63,0.06,48.92,0.79c28.6,1.29,56.35,7.09,83.26,17
			c28.49,10.49,53.72,26.14,75.39,47.36c26.72,26.16,45.32,57.03,52.22,94.12c3.71,19.93,6.96,40,6.35,60.44
			c-0.21,7.03-0.43,14.12-1.73,20.99c-4.06,21.42-12.81,40.66-27.28,57.24c-14.78,16.93-30.61,32.65-48.98,45.69
			c-3.39,2.4-6.64,5.01-9.88,7.61c-25.61,20.56-54.84,33.16-86.92,39.41c-16.48,3.21-33.22,4.57-49.83,6.86
			c-14.16,1.95-28.37,1.78-42.59,1.89c-213.84,1.74-427.68-0.21-641.52,0.6c-8.65,0.03-17.21,1.06-25.84,1.2
			c-2.53,0.04-4.75-0.33-6.18-2.76c-1.17-1.97-1.44-3.85-0.13-5.84c1.15-1.75,2.43-3.42,4.14-4.62
			c8.19-5.75,14.77-13.19,21.62-20.35c17.79-18.61,35.85-36.96,54.11-55.12c11.11-11.05,22.09-22.24,32.52-33.94
			c8.2-9.2,18.52-13.18,30.7-13.17c61.74,0.06,123.48,0.04,185.22,0.07c105.4,0.04,210.81,0.11,316.21,0.14
			c10.72,0,21.45,0.2,32.14-0.32c13.07-0.63,26.22-1.16,39.07-3.78c8.9-1.81,17.84-3.98,26.3-7.2
			c27.08-10.32,45.79-33.63,42.68-67.51c-1.2-13.08-7.55-22.86-20.03-28.17c-4.56-1.94-9.08-3.99-13.47-6.29
			c-12.37-6.47-25.62-9.86-39.41-11.21c-14.78-1.45-29.55-3.04-44.32-4.48c-9.37-0.91-18.84-0.98-28.27-1.11
			c-16.47-0.23-32.96,0.11-49.42-0.35c-53.73-1.47-107.47-0.23-161.2-0.59c-8.15-0.05-16.28,0.95-24.44,0.59
			c-23.02-0.99-46.05-0.28-69.07-0.89c-12.93-0.34-25.81-1.62-38.66-3.3c-12.83-1.68-25.67-3.23-38.48-5.03
			c-25.86-3.64-49.92-12.16-72.18-25.79c-7.92-4.85-15.59-10.03-22.64-16.12c-8.4-7.26-15.68-15.48-21.95-24.64
			c-8.39-12.28-16.98-24.41-23.58-37.81c-7.99-16.23-12.64-33.4-15.21-51.25c-2.18-15.12-2.55-30.31-1.5-45.45
			c2.36-34,13.65-64.85,34.05-92.29c19.14-25.74,43.29-45.53,71.39-60.75c28.28-15.32,58.45-24.82,90.2-29.56
			c11.86-1.77,23.75-2.96,35.71-3.83c10.87-0.8,21.73-0.61,32.59-0.87c1.59-0.04,3.21,0.08,4.72-0.59c13.76,0,27.51,0,41.27,0
			c1.83,0.77,3.77,0.56,5.68,0.56c58.6,0.01,117.2,0.01,175.8,0c1.91,0,3.84,0.22,5.68-0.56c78.06,0,156.12,0,234.18,0
			c1.52,0.66,3.13,0.56,4.72,0.56c51.25,0.03,102.49,0.06,153.74,0.08c1.9,0,3.84,0.18,5.66-0.64c7.36,0,14.72,0,22.07,0
			c4.12,2.14,7.97,4.62,10.56,8.64C1870.8,743.11,1870.8,746.31,1870.8,749.51z"/>
		<path d="M516.6,731.28c1.84,0.78,3.78,0.55,5.69,0.56c142.52,0.37,285.04,0.39,427.56,0.22c9.63-0.01,19.18,0.4,28.36,3.72
			c2.12,0.76,4.18,1.6,6,2.96c5.05,3.77,6.3,9.31,3.23,14.85c-1.72,3.1-4.13,5.69-6.53,8.26c-8.73,9.35-17.44,18.72-26.28,27.97
			c-18.34,19.19-36.77,38.3-55.14,57.46c-4.43,4.62-8.72,9.36-13.14,13.98c-8.52,8.91-19.05,12.82-31.32,13.37
			c-19.98,0.91-39.98,0.42-59.95,1.06c-20.95,0.67-41.9,0.55-62.85,0.33c-120.76-1.24-241.52-1.02-362.28-0.41
			c-19.36,0.1-38.54,2.74-57.22,8.33c-16.69,5-31.25,13.74-44.66,24.61c-3.63,2.95-6.39,6.7-8.93,10.6
			c-13.01,19.99-25.16,40.46-35.38,62.04c-1.09,2.3-2.6,4.41-3.73,6.7c-1.64,3.3-0.67,5.23,2.94,5.81c1.72,0.27,3.51,0.19,5.27,0.23
			c78.53,1.68,157.06,0.76,235.59,0.91c92.45,0.18,184.91,0.13,277.36,0.44c14.7,0.05,29.42,0.42,44.13,0.54
			c15.36,0.13,30.68-0.44,45.99-1.68c7.78-0.63,10.79,1.53,12.9,9.02c1.22,4.35,1.45,8.88,1.44,13.31
			c-0.06,17.26-0.52,34.51-1.26,51.76c-0.52,12.14-0.39,24.3-0.5,36.45c-0.05,5.97-0.92,11.76-2.96,17.4
			c-2.23,6.15-6.63,9.32-13.06,9.4c-7.83,0.1-15.67,0.37-23.49-0.48c-0.95-0.1-1.91-0.18-2.87-0.2c-18.06-0.4-36.13-0.62-54.19-1.21
			c-47.81-1.56-95.64-1.22-143.45-0.58c-111.8,1.49-223.61,0.15-335.41,0.72c-19.83,0.1-39.63-1.42-59.47-0.95
			c-9.79,0.23-10.43,0.68-8.81,10.05c2.17,12.58,3.53,25.31,7.22,37.63c10.52,35.14,32.83,58.97,67.55,71.06
			c12.59,4.38,25.56,6.96,38.79,8.42c14.49,1.59,29.01,1.91,43.56,1.89c16-0.02,31.99,0.01,47.99,0.23
			c103.16,1.47,206.33,0.4,309.49,0.57c24.79,0.04,49.59-0.06,74.38,0.39c12.62,0.23,25.24,0.82,37.88,0.79
			c5.47-0.01,10.83-0.79,16.22-1.47c6.03-0.76,10.32,1.4,12.75,6.99c4.13,9.51,3.18,18.41-4.57,25.97
			c-7.21,7.04-14.22,14.27-21.66,21.07c-14.3,13.06-27.3,27.42-40.45,41.61c-8.91,9.62-17.94,19.13-27.17,28.45
			c-7.18,7.25-16.29,10.69-26.35,11.13c-11.02,0.48-22.06,0.63-33.09,0.64c-122.05,0.06-244.09,0.08-366.14,0.08
			c-12.49,0-24.86-1.54-37.25-2.97c-7.3-0.84-14.6-1.65-21.91-2.34c-18.89-1.77-37.16-6.26-55.01-12.54
			c-23.67-8.33-45.92-19.4-66.31-34.12c-18.71-13.5-34.38-29.99-48.72-47.97c-26.11-32.75-41.8-70.07-49.8-110.9
			c-2.64-13.49-5.05-27.02-6.36-40.71c-0.58-6.04-0.81-12.12-1.15-18.18c-0.11-1.91,0.02-3.85-0.86-5.64c0-6.72,0-13.43,0-20.15
			c1.48-6.91,1.22-13.97,1.57-20.96c0.68-13.57,1.72-27.1,3.35-40.57c1.92-15.86,4.75-31.58,8.33-47.16
			c8.59-37.44,21.02-73.35,41.29-106.31c11.67-18.96,23.84-37.49,39.08-53.83c35.77-38.37,79-65.04,128.53-81.74
			c22.51-7.59,45.67-11.78,69.4-13.55c25.2-1.88,50.4-2.7,75.65-2.71c12.63-0.01,25.26-0.05,37.89-0.09
			c1.91-0.01,3.85,0.21,5.68-0.56C478.85,731.28,497.72,731.28,516.6,731.28z"/>
		<path d="M1285.35,1668.72c-4.01-1.23-8.2-1.04-12.3-1.53c-28.58-3.44-51.21-16.21-65.8-41.64c-5.98-10.43-9.22-21.84-10.15-33.73
			c-0.96-12.28-0.89-24.62,2.38-36.68c9.07-33.44,30.82-53.87,64.4-61.26c19.02-4.18,38.14-3.05,56.79,3.01
			c5.96,1.94,11.6,4.61,16.62,8.42c10.48,7.94,12.56,18.1,6.12,29.55c-2.38,4.24-5.55,7.82-9.24,10.94
			c-3.03,2.57-3.48,2.6-6.41-0.21c-7.73-7.4-16.9-11.97-27.28-14.22c-14.75-3.2-28.65-1.45-41.1,7.57
			c-9.81,7.11-15.33,17.01-17.65,28.73c-1.76,8.87-1.68,17.77,0.34,26.65c4.13,18.13,18.81,31.3,37.31,33.88
			c16.54,2.31,32.12-0.19,46.88-7.99c2.88-1.52,3.19-1.49,4.95,1.39c5.24,8.6,10.42,17.24,15.53,25.92
			c1.69,2.88,1.48,3.64-1.34,5.48c-4.43,2.89-9.21,5.17-14.15,7.05c-12.35,4.71-25.2,7.05-38.34,7.92c-1.58,0.1-3.22-0.11-4.68,0.75
			C1287.27,1668.72,1286.31,1668.72,1285.35,1668.72z"/>
		<path d="M661.71,1590.53c0.8-1.98,0.47-3.58,0.47-5.13c0.03-22.54,0.02-45.09,0.02-67.63c0-1.76-0.05-3.52,0.07-5.27
			c0.46-6.84,3.77-11.76,10.11-14.49c3.72-1.61,7.64-2.35,11.69-2.2c5.29,0.19,10.49,1.08,15.52,2.73c3.81,1.26,4.12,1.75,4.25,5.86
			c0.03,0.96,0.01,1.92,0.01,2.88c0,49.4,0,98.81,0,148.21c0,7.83-0.01,7.83-7.93,7.83c-8.8,0-17.6-0.17-26.39,0.08
			c-3.79,0.1-6.15-1.13-8.21-4.37c-19.18-30.06-38.58-59.97-58.49-89.54c-1.13-1.68-2.29-3.34-3.83-5.58
			c-0.87,2.42-0.58,4.16-0.58,5.84c-0.02,28.78-0.01,57.56-0.02,86.34c0,7.21-0.02,7.22-7.03,7.23c-9.6,0.01-19.19,0.02-28.79-0.01
			c-5.47-0.02-5.76-0.26-5.78-5.64c-0.05-13.59-0.02-27.18-0.02-40.77c0-32.3,0-64.59,0-96.89c0-2.55-0.02-5.1,0.54-7.63
			c2.27-10.16,9.62-15.99,21.25-16.53c5.99-0.28,11.75,0.99,17.31,3.19c2.89,1.14,5.15,3.03,7.03,5.57
			c7.8,10.55,15.17,21.39,22.52,32.24c11.73,17.35,23.78,34.49,35.01,52.17C660.72,1589.4,661.06,1589.74,661.71,1590.53z"/>
		<path d="M1553.02,1587.16c0-21.75,0-43.49,0-65.24c0-1.6-0.04-3.2,0.03-4.8c0.53-11.93,6.6-19.09,18.31-21.15
			c7.07-1.24,14.23-2.1,21.43-2.14c10.56-0.06,21.13-0.39,31.66,0.06c14.34,0.62,28.2,3.55,40.81,10.9
			c15.72,9.16,23.96,22.91,25.48,40.96c0.52,6.12,0.15,12.12-0.92,18.11c-2.37,13.29-9.22,23.66-20.47,31.14
			c-3.89,2.59-3.88,2.63-1.48,6.64c10.77,17.98,20.5,36.52,29.67,55.36c0.35,0.72,0.72,1.43,1.02,2.17c1.4,3.38,1.09,4.08-2.4,4.1
			c-13.43,0.07-26.87-0.04-40.31,0.07c-3.04,0.02-4.11-1.72-5.13-4.07c-6.94-16.01-15.13-31.38-23.48-46.68
			c-1.83-3.36-3.79-4.71-7.87-4.37c-6.66,0.56-13.41,0.6-20.11-0.32c-4.15-0.57-4.79-0.03-4.8,4.25
			c-0.06,14.39-0.02,28.78-0.03,43.17c0,7.98-0.01,7.98-7.79,7.98c-8.96,0-17.91,0.01-26.87,0c-6.72-0.01-6.76-0.02-6.76-6.6
			C1553,1633.53,1553.02,1610.34,1553.02,1587.16z M1594.45,1550.7c0,5.27-0.04,10.53,0.01,15.8c0.05,4.98,0.77,5.82,5.88,5.92
			c7.5,0.14,15.01,0.23,22.5-0.01c5.12-0.17,10.1-1.46,14.74-3.72c5.89-2.87,9.4-7.6,10.2-14.1c1.26-10.26-3.09-17.65-12.6-21.77
			c-2.05-0.89-4.18-1.54-6.37-2.01c-9.94-2.13-19.95-1.78-29.98-0.98c-3.94,0.32-4.28,0.54-4.34,4.61
			C1594.4,1539.84,1594.46,1545.27,1594.45,1550.7z"/>
		<path d="M234.13,1586.87c0-22.05,0-44.11,0-66.16c0-2.08-0.05-4.16,0.12-6.23c0.79-9.14,6.06-15.47,14.96-17.75
			c7.45-1.91,15.11-2.62,22.76-2.81c11.02-0.27,22.07-0.41,33.08-0.03c13.19,0.46,26.02,3.06,37.88,9.17
			c18.77,9.66,28.3,25.21,28.92,46.22c0.4,13.49-2.48,26.01-11.32,36.7c-3,3.62-6.62,6.45-10.44,9.11c-3.65,2.54-3.69,2.58-1.4,6.41
			c10.82,18.12,20.61,36.8,29.84,55.78c2.93,6.02,2.91,6.04-3.97,6.04c-11.83,0.01-23.66-0.15-35.49,0.09
			c-4.08,0.08-6.26-1.15-7.93-5.03c-6.75-15.72-14.75-30.83-23.06-45.79c-1.82-3.28-3.65-4.8-7.84-4.38
			c-6.64,0.66-13.4,0.64-20.09-0.33c-4.61-0.66-5.13-0.13-5.14,4.82c-0.03,14.06,0,28.13-0.02,42.19c-0.01,9.33,0.52,8.39-8.67,8.43
			c-8.95,0.04-17.9,0.04-26.85-0.01c-5.17-0.03-5.34-0.18-5.34-5.48C234.12,1634.17,234.13,1610.52,234.13,1586.87z M292.13,1572.42
			c0,0.02,0,0.05,0,0.07c3.51,0,7.04,0.13,10.54-0.03c5.13-0.24,10.13-1.28,14.85-3.39c7.08-3.17,10.83-8.45,11.09-16.39
			c0.28-8.5-2.72-14.95-10.41-18.9c-4.6-2.37-9.6-3.26-14.69-3.99c-7.99-1.14-15.93-0.26-23.88,0.05c-4.32,0.17-4.57,0.4-4.58,4.76
			c-0.05,10.7-0.04,21.4,0,32.11c0.02,4.64,0.75,5.45,5.6,5.68C284.45,1572.56,288.29,1572.42,292.13,1572.42z"/>
		<path d="M401.32,1588.24c0-22.39,0.02-44.78-0.02-67.16c-0.01-3.06,0.22-6.08,0.9-9.04c1.71-7.48,6.12-12.55,13.58-14.69
			c3.38-0.97,6.84-1.57,10.39-1.57c27.51,0.01,55.02,0.01,82.54,0c3.72,0,7.35,0.58,10.8,1.92c6.4,2.49,10.03,7.28,10.71,14.08
			c0.69,6.82-0.61,13.34-3.31,19.65c-1.15,2.69-2.83,4.1-5.82,3.95c-2.07-0.11-4.16-0.01-6.24-0.01c-21.27,0-42.55,0-63.82,0
			c-1.44,0-2.88,0.03-4.32,0.09c-1.92,0.09-2.96,1.17-2.97,3.05c-0.04,6.23-0.04,12.47,0.01,18.7c0.01,1.7,1.01,2.63,2.73,2.69
			c1.28,0.04,2.56,0.05,3.84,0.05c18.87,0,37.75-0.01,56.62,0.02c2.07,0,4.19-0.01,6.21,0.38c8.31,1.62,13.47,7.66,14.15,16.47
			c0.52,6.72-1.31,12.97-3.87,19.08c-1.04,2.47-2.96,3.04-5.41,3.02c-8.96-0.05-17.91-0.01-26.87-0.01c-13.6,0-27.19,0-40.79,0
			c-1.28,0-2.56,0.01-3.84,0.06c-1.7,0.07-2.75,0.96-2.77,2.67c-0.06,6.55-0.06,13.11-0.03,19.66c0.01,1.91,1.05,2.94,3,2.97
			c1.44,0.02,2.88,0.05,4.32,0.05c23.35,0,46.71,0,70.06,0c1.28,0,2.56-0.04,3.84,0.03c3.64,0.19,4.28,0.66,4.31,4.21
			c0.09,10.23,0.09,20.47-0.01,30.7c-0.03,3.44-0.54,3.79-3.95,4c-1.12,0.07-2.24,0.03-3.36,0.03c-37.75,0-75.5,0-113.25,0
			c-7.36,0-7.38-0.01-7.38-7.43C401.31,1633.34,401.32,1610.79,401.32,1588.24z"/>
		<path d="M1512.68,1663.32c-5.76,0-11.51,0.02-17.27-0.01c-5.02-0.03-4.97-0.07-6.79-4.92c-3.24-8.68-6.65-17.31-9.78-26.03
			c-1.18-3.3-2.91-4.72-6.62-4.69c-19.99,0.17-39.98,0.17-59.97,0.01c-3.64-0.03-5.59,1.28-6.77,4.59
			c-3.1,8.73-6.37,17.41-9.53,26.12c-1.76,4.86-1.73,4.92-6.76,4.93c-11.19,0.03-22.39,0.04-33.58-0.01
			c-4.65-0.02-4.9-0.32-3.2-4.61c7.2-18.12,14.39-36.24,21.75-54.3c12.66-31.09,26.05-61.87,39.52-92.61
			c1.35-3.08,2.88-6.06,4.8-8.84c4.46-6.48,10.78-9.96,18.4-10.91c9.1-1.14,17.8,0.71,26.16,4.36c3.16,1.38,5.02,3.84,6.39,6.83
			c5.32,11.62,10.8,23.18,15.94,34.89c14.9,33.96,29.32,68.12,42.85,102.65c2.33,5.95,4.6,11.93,6.76,17.95
			c1.4,3.92,0.97,4.52-3.11,4.58C1525.47,1663.37,1519.07,1663.31,1512.68,1663.32C1512.68,1663.31,1512.68,1663.31,1512.68,1663.32
			z M1442.57,1540.41c-0.78,0.19-1.09,0.76-1.32,1.34c-5.76,14.72-11.55,29.44-17.25,44.19c-1.27,3.29-0.87,3.78,2.9,3.8
			c10.55,0.06,21.09,0.05,31.64,0c3.63-0.02,3.79-0.36,2.61-3.96c-0.1-0.3-0.22-0.6-0.33-0.9c-5.48-13.98-10.95-27.96-16.45-41.92
			C1443.98,1541.98,1443.81,1540.76,1442.57,1540.41z"/>
		<path d="M1104.04,1663.31c-6.08,0-12.15,0.04-18.23-0.02c-4.23-0.04-4.33-0.17-5.85-4.19c-3.39-8.97-6.74-17.96-10.19-26.9
			c-1.72-4.45-1.81-4.46-6.65-4.46c-19.83-0.02-39.66-0.02-59.49,0c-5.2,0-5.19,0.04-7.27,5.05c-3.43,8.28-6.34,16.74-9.23,25.21
			c-1.81,5.29-1.86,5.3-7.5,5.31c-10.71,0.02-21.43,0.01-32.14,0c-0.8,0-1.6-0.03-2.4-0.02c-2.1,0.01-3-0.85-2.21-2.98
			c0.72-1.95,1.43-3.9,2.18-5.84c18.33-46.9,37.96-93.26,58.16-139.38c1.86-4.24,3.73-8.48,6.43-12.3
			c4.98-7.06,11.95-10.29,20.37-10.93c7.32-0.56,14.26,0.93,21.14,3.33c4.34,1.52,7.31,4.02,9.36,8.23
			c7.62,15.68,14.67,31.61,21.55,47.61c14.26,33.19,28.46,66.4,41.18,100.22c0.79,2.09,1.55,4.2,2.31,6.3
			c2.02,5.6,1.93,5.73-4.23,5.76C1115.55,1663.33,1109.8,1663.32,1104.04,1663.31z M1033.54,1539.8c-0.75,0.45-0.98,1.23-1.26,1.96
			c-5.71,14.58-11.43,29.15-17.09,43.75c-1.44,3.72-1.12,4.22,2.78,4.24c10.55,0.06,21.1,0.02,31.65,0.02
			c0.48,0,0.96-0.03,1.44-0.03c1.85-0.01,2.12-1.06,1.65-2.55c-0.19-0.61-0.45-1.2-0.68-1.79c-5.58-14.29-11.14-28.58-16.76-42.85
			C1034.87,1541.57,1034.8,1540.29,1033.54,1539.8z"/>
		<path d="M795.82,1495.78c20.62,0,41.25,0.01,61.87-0.02c3.05,0,6.05,0.22,9.04,0.9c8.87,2.01,14.21,8.1,14.59,17.18
			c0.28,6.5-1.54,12.63-4.13,18.55c-0.88,2.02-2.41,2.89-4.52,2.91c-3.36,0.03-6.71,0.05-10.07,0.05
			c-11.67,0.01-23.34-0.02-35.01,0.02c-5.39,0.02-5.6,0.24-5.6,5.77c-0.02,37.88-0.02,75.76-0.01,113.65c0,9.61,0.11,8.47-8.65,8.52
			c-9.43,0.05-18.87,0.04-28.3,0c-5.01-0.02-5.4-0.39-5.44-5.51c-0.06-8.79-0.02-17.58-0.02-26.37c0-29.57,0-59.14,0-88.71
			c0-7.33-0.01-7.34-7.49-7.35c-7.67-0.01-15.35-0.1-23.02,0.04c-4.34,0.07-8.63-0.37-12.9-0.84c-9.84-1.07-16.32-9.13-15.81-19.48
			c0.24-4.8,1.18-9.51,2.98-14.01c1.97-4.94,2.41-5.28,7.75-5.29c19.98-0.02,39.97-0.01,59.95-0.01
			C792.62,1495.78,794.22,1495.78,795.82,1495.78z"/>
	</g>
</g>
</svg>
